<svg width="1600" height="900" viewBox="0 0 1600 900" fill="none" xmlns="http://www.w3.org/2000/svg">
  <defs>
    <linearGradient id="bg" x1="0" y1="0" x2="1600" y2="900" gradientUnits="userSpaceOnUse">
      <stop stop-color="#0f172a"/>
      <stop offset="1" stop-color="#020617"/>
    </linearGradient>
    <linearGradient id="panel" x1="240" y1="180" x2="1360" y2="720" gradientUnits="userSpaceOnUse">
      <stop stop-color="#1d4ed8" stop-opacity="0.28"/>
      <stop offset="1" stop-color="#14b8a6" stop-opacity="0.18"/>
    </linearGradient>
    <linearGradient id="orbit" x1="320" y1="280" x2="1180" y2="660" gradientUnits="userSpaceOnUse">
      <stop stop-color="#1d4ed8"/>
      <stop offset="1" stop-color="#14b8a6"/>
    </linearGradient>
  </defs>
  <rect width="1600" height="900" rx="48" fill="url(#bg)"/>
  <circle cx="1240" cy="140" r="220" fill="#1d4ed8" fill-opacity="0.12"/>
  <circle cx="300" cy="760" r="180" fill="#14b8a6" fill-opacity="0.15"/>
  <rect x="180" y="150" width="1240" height="600" rx="40" fill="url(#panel)" stroke="rgba(255,255,255,0.18)"/>
  <rect x="260" y="230" width="440" height="74" rx="37" fill="rgba(255,255,255,0.08)" stroke="rgba(255,255,255,0.12)"/>
  <circle cx="320" cy="267" r="16" fill="#14b8a6"/>
  <circle cx="368" cy="267" r="16" fill="#1d4ed8" fill-opacity="0.85"/>
  <circle cx="416" cy="267" r="16" fill="#F8FAFC" fill-opacity="0.7"/>
  <path d="M880 266C970 204 1114 210 1199 280C1282 349 1294 462 1227 540C1160 619 1036 650 936 622C835 594 756 505 760 410C764 351 803 303 880 266Z" fill="url(#orbit)" fill-opacity="0.24"/>
  <path d="M882 353C951 311 1044 309 1112 347C1180 385 1222 460 1203 529C1184 597 1107 638 1024 648C933 660 837 636 783 570C729 505 726 408 782 365C812 342 847 332 882 353Z" stroke="url(#orbit)" stroke-width="16" stroke-linecap="round"/>
  <rect x="260" y="520" width="530" height="140" rx="28" fill="rgba(2,6,23,0.46)" stroke="rgba(255,255,255,0.10)"/>
  <rect x="840" y="520" width="460" height="54" rx="18" fill="rgba(255,255,255,0.07)"/>
  <rect x="840" y="594" width="360" height="18" rx="9" fill="rgba(255,255,255,0.12)"/>
  <rect x="840" y="626" width="280" height="18" rx="9" fill="rgba(255,255,255,0.08)"/>
  <text x="260" y="396" fill="#F8FAFC" font-size="82" font-family="Arial, Helvetica, sans-serif" font-weight="700">Pacific AI Systems</text>
  <text x="260" y="456" fill="#CBD5E1" font-size="34" font-family="Arial, Helvetica, sans-serif">Context engineered for the Pacific</text>
  <text x="300" y="580" fill="#F8FAFC" font-size="28" font-family="Arial, Helvetica, sans-serif" font-weight="700">Sovereign deployment</text>
  <text x="300" y="622" fill="#CBD5E1" font-size="24" font-family="Arial, Helvetica, sans-serif">Verified outputs, domain context, cloud-native delivery.</text>
  <text x="840" y="500" fill="#E2E8F0" font-size="24" font-family="Arial, Helvetica, sans-serif">Operational model</text>
</svg>
